<?xml version="1.0" encoding="UTF-8"?>
<svg version="1.1" xmlns="http://www.w3.org/2000/svg" width="1200" height="1200">
<path d="M0 0 C247.5 0 495 0 750 0 C750 138.6 750 277.2 750 420 C502.5 420 255 420 0 420 C0 281.4 0 142.8 0 0 Z M15 15 C15 66.81 15 118.62 15 172 C104.1 172 193.2 172 285 172 C285 177.28 285 182.56 285 188 C195.9 188 106.8 188 15 188 C15 259.61 15 331.22 15 405 C252.6 405 490.2 405 735 405 C735 333.39 735 261.78 735 188 C645.9 188 556.8 188 465 188 C465 182.72 465 177.44 465 172 C554.1 172 643.2 172 735 172 C735 120.19 735 68.38 735 15 C497.4 15 259.8 15 15 15 Z " fill="#5CACBD" transform="translate(225,390)"/>
<path d="M0 0 C1.20805298 -0.00945648 2.41610596 -0.01891296 3.6607666 -0.02865601 C5.61242737 -0.01954697 5.61242737 -0.01954697 7.60351562 -0.01025391 C8.95585283 -0.01227579 10.30818898 -0.01518818 11.66052246 -0.01895142 C14.49172367 -0.02336947 17.3226405 -0.01696082 20.15380859 -0.00292969 C23.77885321 0.01416238 27.40323147 0.00431835 31.02825165 -0.01364708 C33.81985474 -0.02449922 36.61130043 -0.02103212 39.40290833 -0.0132637 C41.38819818 -0.0102955 43.3734942 -0.0193901 45.35876465 -0.02865601 C46.56681763 -0.01919952 47.77487061 -0.00974304 49.01953125 0 C50.08224243 0.00238678 51.14495361 0.00477356 52.23986816 0.00723267 C55.51731113 0.4579876 56.85105177 0.86150534 59.00976562 3.38818359 C59.41314963 6.004981 59.55711186 8.20673437 59.52734375 10.82543945 C59.53435303 11.58023087 59.5413623 12.33502228 59.54858398 13.11268616 C59.56620104 15.60983993 59.55452773 18.10586187 59.54101562 20.60302734 C59.54370978 22.33793862 59.54759155 24.07284842 59.5526123 25.80775452 C59.55851259 29.44530603 59.54992862 33.08246482 59.53125 36.7199707 C59.50847686 41.38206013 59.52156939 46.04322769 59.54553986 50.70528316 C59.55999817 54.28869057 59.55539145 57.87187966 59.54502869 61.45529366 C59.5423606 63.17408927 59.54563407 64.89290472 59.5549469 66.61167717 C59.56511149 69.01549583 59.54961378 71.4178254 59.52734375 73.8215332 C59.53544067 74.53179657 59.5435376 75.24205994 59.55187988 75.97384644 C59.49635592 79.21032312 59.18633415 81.12826925 57.35180664 83.82875061 C54.37999066 85.80751522 52.57877588 85.89510328 49.01953125 85.90576172 C47.81147827 85.91837036 46.60342529 85.930979 45.35876465 85.94396973 C44.05765747 85.9358728 42.75655029 85.92777588 41.41601562 85.91943359 C40.06367718 85.92212943 38.71134062 85.92601263 37.35900879 85.93103027 C34.52772528 85.93692118 31.6969473 85.92837652 28.86572266 85.90966797 C25.24049899 85.88687742 21.61645982 85.90000286 17.9912796 85.92395782 C15.19963695 85.93842755 12.40827411 85.93380471 9.61662292 85.92344666 C7.63132964 85.91948904 5.64602539 85.93161526 3.6607666 85.94396973 C1.84868713 85.92505676 1.84868713 85.92505676 0 85.90576172 C-1.06271118 85.90257935 -2.12542236 85.89939697 -3.22033691 85.89611816 C-5.99023438 85.38818359 -5.99023438 85.38818359 -8.33227539 83.82875061 C-10.56914543 80.53600857 -10.55166153 77.66797648 -10.5078125 73.8215332 C-10.51482178 73.06498947 -10.52183105 72.30844574 -10.52905273 71.52897644 C-10.54663434 69.03245157 -10.53501137 66.53706339 -10.52148438 64.04052734 C-10.52417898 62.30464968 -10.52806114 60.56877349 -10.53308105 58.832901 C-10.53897606 55.19712943 -10.53041223 51.56175121 -10.51171875 47.92602539 C-10.48891194 43.26274589 -10.5020628 38.60038633 -10.52600861 33.93714046 C-10.54045218 30.35377551 -10.53586758 26.77062926 -10.52549744 23.18725777 C-10.52282703 21.46763564 -10.52611094 19.74799373 -10.53541565 18.0283947 C-10.54555981 15.62687319 -10.5301129 13.2268492 -10.5078125 10.82543945 C-10.51590942 10.11315186 -10.52400635 9.40086426 -10.53234863 8.66699219 C-10.4795176 5.60069302 -10.35812157 3.81877914 -8.33227539 1.44761658 C-5.39863879 0.12057262 -3.22159392 0.00723549 0 0 Z M-3.99023438 7.38818359 C-3.99023438 30.81818359 -3.99023438 54.24818359 -3.99023438 78.38818359 C14.81976562 78.38818359 33.62976563 78.38818359 53.00976562 78.38818359 C53.00976562 54.95818359 53.00976562 31.52818359 53.00976562 7.38818359 C34.19976563 7.38818359 15.38976562 7.38818359 -3.99023438 7.38818359 Z " fill="#5CACBD" transform="translate(534.990234375,495.61181640625)"/>
<path d="M0 0 C1.53745628 -0.0076664 1.53745628 -0.0076664 3.10597229 -0.01548767 C6.49136202 -0.02937843 9.87654806 -0.02842732 13.26196289 -0.02612305 C15.61698991 -0.03001013 17.97201622 -0.03434482 20.32704163 -0.03910828 C25.26232171 -0.04656929 30.19753025 -0.04627994 35.1328125 -0.04101562 C41.45576884 -0.03521988 47.77843237 -0.05215537 54.10134029 -0.0753603 C58.96466279 -0.09009483 63.82791471 -0.09096973 68.69125557 -0.08785057 C71.02244204 -0.08836388 73.35363246 -0.09360336 75.68479729 -0.10366249 C78.94500619 -0.11600439 82.20464393 -0.10924837 85.46484375 -0.09765625 C86.42659515 -0.10529999 87.38834656 -0.11294373 88.37924194 -0.12081909 C94.83481938 -0.07010759 99.0803161 0.99381909 104.14770508 5.24804688 C106.70785516 9.94582376 106.28946737 14.43874351 106.18774414 19.70043945 C106.18208435 20.80316696 106.17642456 21.90589447 106.17059326 23.04203796 C106.14823664 26.55752313 106.09803936 30.07198207 106.04711914 33.5871582 C106.02705332 35.97321117 106.0088027 38.35928015 105.99243164 40.74536133 C105.94837416 46.5888093 105.88146832 52.43166043 105.79711914 58.2746582 C103.81711914 58.2746582 101.83711914 58.2746582 99.79711914 58.2746582 C99.78903229 57.69250046 99.78094543 57.11034271 99.77261353 56.51054382 C99.68665817 50.45976651 99.58715871 44.40932022 99.47973633 38.35888672 C99.44141694 36.09982862 99.40656933 33.84070888 99.37524414 31.58154297 C99.32965807 28.33709663 99.27165276 25.09307572 99.21118164 21.84887695 C99.19963043 20.83629318 99.18807922 19.82370941 99.17617798 18.78044128 C99.15630829 17.83969254 99.1364386 16.89894379 99.1159668 15.9296875 C99.10264313 15.10139938 99.08931946 14.27311127 99.07559204 13.41972351 C98.91973155 10.97869687 98.91973155 10.97869687 96.79711914 8.2746582 C94.80470252 7.82070736 94.80470252 7.82070736 92.4699707 7.89370728 C91.10708923 7.88101807 91.10708923 7.88101807 89.7166748 7.86807251 C88.71712769 7.8741452 87.71758057 7.8802179 86.68774414 7.88647461 C85.11204651 7.87858917 85.11204651 7.87858917 83.5045166 7.87054443 C80.01856793 7.85729821 76.53307277 7.86609906 73.04711914 7.8762207 C70.63338127 7.8742013 68.21964398 7.87129099 65.8059082 7.86752319 C60.74172164 7.86309356 55.67769357 7.86955156 50.61352539 7.88354492 C44.10959254 7.90063697 37.60603103 7.89079923 31.10211182 7.87282753 C26.11626365 7.86200703 21.13050409 7.86542808 16.14465332 7.87321091 C13.74597124 7.87521771 11.34728121 7.87273691 8.9486084 7.86577225 C5.601019 7.85818638 2.25403801 7.86972213 -1.09350586 7.88647461 C-2.09305298 7.88040192 -3.0926001 7.87432922 -4.12243652 7.86807251 C-5.48531799 7.88076172 -5.48531799 7.88076172 -6.87573242 7.89370728 C-7.66772034 7.89483835 -8.45970825 7.89596943 -9.2756958 7.89713478 C-9.91166687 8.02171751 -10.54763794 8.14630024 -11.20288086 8.2746582 C-13.59236283 11.85888116 -13.50521254 13.64698417 -13.61694336 17.91137695 C-13.65561523 19.21010742 -13.69428711 20.50883789 -13.73413086 21.84692383 C-13.76558602 23.21866393 -13.79683337 24.59040881 -13.82788086 25.9621582 C-13.86607283 27.34564605 -13.90512528 28.72911043 -13.94506836 30.11254883 C-14.03948603 33.49978271 -14.12506204 36.88700889 -14.20288086 40.2746582 C-16.18288086 40.2746582 -18.16288086 40.2746582 -20.20288086 40.2746582 C-20.32703334 35.82732521 -20.41747543 31.3809256 -20.47753906 26.93237305 C-20.50259181 25.42112647 -20.53664463 23.90999996 -20.58007812 22.39916992 C-20.64114776 20.21934319 -20.66918002 18.04112558 -20.69116211 15.8605957 C-20.71734619 14.5513916 -20.74353027 13.2421875 -20.77050781 11.89331055 C-20.0157886 7.081935 -18.71122392 5.61766732 -15.20288086 2.2746582 C-10.41051981 -0.42846988 -5.34433159 -0.01373778 0 0 Z " fill="#5CACBD" transform="translate(557.202880859375,453.725341796875)"/>
<path d="M0 0 C0.9343689 -0.00637985 1.86873779 -0.0127597 2.8314209 -0.01933289 C3.84289185 -0.02044571 4.85436279 -0.02155853 5.89648438 -0.02270508 C6.93212524 -0.02603348 7.96776611 -0.02936188 9.03479004 -0.03279114 C11.22712763 -0.03785968 13.41947296 -0.04019949 15.61181641 -0.04003906 C18.97636525 -0.04222731 22.34058727 -0.06038874 25.70507812 -0.0793457 C27.83137908 -0.08227921 29.9576816 -0.08426429 32.08398438 -0.08520508 C33.6011908 -0.09598335 33.6011908 -0.09598335 35.14904785 -0.10697937 C36.08341675 -0.10390274 37.01778564 -0.10082611 37.98046875 -0.09765625 C38.80494507 -0.09908127 39.62942139 -0.10050629 40.47888184 -0.10197449 C42.49023438 0.14526367 42.49023438 0.14526367 44.49023438 2.14526367 C44.74420166 4.53625488 44.74420166 4.53625488 44.74902344 7.57299805 C44.75532776 8.70757446 44.76163208 9.84215088 44.76812744 11.0111084 C44.76407898 12.24131714 44.76003052 13.47152588 44.75585938 14.73901367 C44.75872955 16.62541565 44.75872955 16.62541565 44.76165771 18.54992676 C44.76302087 21.21319242 44.76031444 23.87609297 44.75097656 26.53930664 C44.73958189 29.95597761 44.74614185 33.37233439 44.75812149 36.78899384 C44.76707891 40.04317847 44.76081065 43.29732495 44.75585938 46.55151367 C44.75990784 47.78172241 44.7639563 49.01193115 44.76812744 50.27941895 C44.76182312 51.41399536 44.7555188 52.54857178 44.74902344 53.7175293 C44.74743225 54.71965454 44.74584106 55.72177979 44.74420166 56.75427246 C44.49023438 59.14526367 44.49023438 59.14526367 42.49023438 61.14526367 C40.47888184 61.39923096 40.47888184 61.39923096 37.98046875 61.40405273 C37.04609985 61.41035706 36.11173096 61.41666138 35.14904785 61.42315674 C34.1375769 61.41910828 33.12610596 61.41505981 32.08398438 61.41088867 C31.04834351 61.41280212 30.01270264 61.41471558 28.94567871 61.41668701 C26.75333412 61.41804964 24.56098149 61.41434781 22.36865234 61.40600586 C19.00404821 61.3953076 15.63997806 61.4058987 12.27539062 61.41870117 C10.14908736 61.41737959 8.02278442 61.41481723 5.89648438 61.41088867 C4.37927795 61.41696136 4.37927795 61.41696136 2.8314209 61.42315674 C1.897052 61.41685242 0.96268311 61.4105481 0 61.40405273 C-1.23671448 61.40166595 -1.23671448 61.40166595 -2.49841309 61.39923096 C-4.50976562 61.14526367 -4.50976562 61.14526367 -6.50976562 59.14526367 C-6.75027466 56.70285034 -6.75027466 56.70285034 -6.73681641 53.59399414 C-6.73666534 52.43294159 -6.73651428 51.27188904 -6.73635864 50.07565308 C-6.72603607 48.81729645 -6.7157135 47.55893982 -6.70507812 46.26245117 C-6.70224823 44.97791046 -6.69941833 43.69336975 -6.69650269 42.36990356 C-6.68886371 38.953636 -6.66921315 35.5375383 -6.64709473 32.12133789 C-6.62664187 28.63584694 -6.61750218 25.15032857 -6.60742188 21.66479492 C-6.58596737 14.82488136 -6.55182834 7.98508067 -6.50976562 1.14526367 C-4.12904781 -0.04509524 -2.65659182 0.01228221 0 0 Z M-0.50976562 7.14526367 C-0.50976562 22.65526367 -0.50976562 38.16526367 -0.50976562 54.14526367 C12.36023438 54.14526367 25.23023438 54.14526367 38.49023438 54.14526367 C38.49023438 38.63526367 38.49023438 23.12526367 38.49023438 7.14526367 C25.62023437 7.14526367 12.75023437 7.14526367 -0.50976562 7.14526367 Z " fill="#5CACBD" transform="translate(540.509765625,504.854736328125)"/>
<path d="M0 0 C0.80610718 -0.00287018 1.61221436 -0.00574036 2.44274902 -0.00869751 C4.14396875 -0.01073542 5.84521205 -0.00522464 7.54638672 0.00732422 C10.14734391 0.02338251 12.74674727 0.00746707 15.34765625 -0.01171875 C17.00260759 -0.00973627 18.65755796 -0.00589249 20.3125 0 C21.47670471 -0.00910904 21.47670471 -0.00910904 22.66442871 -0.0184021 C27.00343803 0.03799469 29.58498019 0.25594492 32.65625 3.3984375 C33.16418457 6.01011658 33.16418457 6.01011658 33.17382812 9.18334961 C33.18643677 10.37145737 33.19904541 11.55956512 33.21203613 12.78367615 C33.20393921 14.06807083 33.19584229 15.35246552 33.1875 16.67578125 C33.1913269 17.99381241 33.19515381 19.31184357 33.19909668 20.66981506 C33.20499345 23.45999899 33.19642547 26.24967058 33.17773438 29.03979492 C33.15496554 32.61236677 33.16805165 36.18373528 33.19202423 39.75626278 C33.20997713 43.16703137 33.19739608 46.57747848 33.1875 49.98828125 C33.19559692 51.2706517 33.20369385 52.55302216 33.21203613 53.87425232 C33.19942749 55.06551224 33.18681885 56.25677216 33.17382812 57.48413086 C33.16905457 59.0560746 33.16905457 59.0560746 33.16418457 60.65977478 C32.52295073 64.11715553 31.43798403 65.30021779 28.65625 67.3984375 C25.74545028 67.7962518 23.22076259 67.9600275 20.3125 67.9296875 C19.50639282 67.9335144 18.70028564 67.93734131 17.86975098 67.94128418 C16.16852568 67.9440014 14.46725847 67.9366534 12.76611328 67.91992188 C10.16474104 67.8985074 7.56613028 67.91972769 4.96484375 67.9453125 C3.30988975 67.94266919 1.65493746 67.93754413 0 67.9296875 C-1.16420471 67.94183289 -1.16420471 67.94183289 -2.35192871 67.95422363 C-5.68709571 67.89642466 -7.8441647 67.7752671 -10.5480957 65.73573303 C-12.81566926 62.78416849 -12.85010306 61.18057031 -12.86132812 57.48413086 C-12.87393677 56.29287094 -12.88654541 55.10161102 -12.89953613 53.87425232 C-12.89143921 52.59188187 -12.88334229 51.30951141 -12.875 49.98828125 C-12.8788269 48.66929337 -12.88265381 47.35030548 -12.88659668 45.99134827 C-12.89248658 43.2029441 -12.88394489 40.41505336 -12.86523438 37.62670898 C-12.84242162 34.05294759 -12.85558382 30.48038624 -12.87952423 26.90666866 C-12.89745156 23.49627651 -12.88490217 20.08620751 -12.875 16.67578125 C-12.88309692 15.39138657 -12.89119385 14.10699188 -12.89953613 12.78367615 C-12.88692749 11.59556839 -12.87431885 10.40746063 -12.86132812 9.18334961 C-12.85814575 8.13618271 -12.85496338 7.08901581 -12.85168457 6.01011658 C-12.34375 3.3984375 -12.34375 3.3984375 -10.5480957 1.56114197 C-7.15750354 -0.22726021 -3.74203138 -0.02927862 0 0 Z M-6.34375 7.3984375 C-6.34375 24.8884375 -6.34375 42.3784375 -6.34375 60.3984375 C4.54625 60.3984375 15.43625 60.3984375 26.65625 60.3984375 C26.65625 42.9084375 26.65625 25.4184375 26.65625 7.3984375 C15.76625 7.3984375 4.87625 7.3984375 -6.34375 7.3984375 Z " fill="#5CACBD" transform="translate(642.34375,513.6015625)"/>
<path d="M0 0 C0.95292938 -0.00335861 1.90585876 -0.00671722 2.88766479 -0.01017761 C6.04882091 -0.01970443 9.20992416 -0.02163148 12.37109375 -0.02270508 C14.56062848 -0.02591605 16.75016299 -0.02928 18.93969727 -0.03279114 C23.53304543 -0.03878646 28.12637476 -0.04063058 32.71972656 -0.04003906 C38.61823901 -0.03993733 44.5166314 -0.05359969 50.41511536 -0.07081127 C54.93770914 -0.08190445 59.46027364 -0.08395911 63.98287964 -0.08342934 C66.15827855 -0.08461312 68.33367813 -0.08905703 70.50906372 -0.0967617 C73.54519176 -0.10650917 76.58105562 -0.10370458 79.6171875 -0.09765625 C80.52322723 -0.10327576 81.42926697 -0.10889526 82.36276245 -0.11468506 C88.58027752 -0.08305255 88.58027752 -0.08305255 90.80859375 2.14526367 C91.04910278 4.05618286 91.04910278 4.05618286 91.03564453 6.41137695 C91.03549347 7.29213898 91.03534241 8.172901 91.03518677 9.08035278 C91.0248642 10.0324765 91.01454163 10.98460022 91.00390625 11.96557617 C91.00107635 12.93937225 90.99824646 13.91316833 90.99533081 14.91647339 C90.98411288 18.03452716 90.95900545 21.15229635 90.93359375 24.27026367 C90.92356603 26.38093661 90.91443982 28.49161405 90.90625 30.60229492 C90.88416833 35.78338202 90.85067504 40.96430252 90.80859375 46.14526367 C88.82859375 46.14526367 86.84859375 46.14526367 84.80859375 46.14526367 C84.80859375 33.27526367 84.80859375 20.40526367 84.80859375 7.14526367 C55.10859375 7.14526367 25.40859375 7.14526367 -5.19140625 7.14526367 C-5.19140625 14.07526367 -5.19140625 21.00526367 -5.19140625 28.14526367 C-7.17140625 28.14526367 -9.15140625 28.14526367 -11.19140625 28.14526367 C-11.19140625 19.23526367 -11.19140625 10.32526367 -11.19140625 1.14526367 C-7.75036962 -0.57525464 -3.78714786 -0.00189427 0 0 Z " fill="#5CACBD" transform="translate(560.19140625,465.854736328125)"/>
<path d="M0 0 C1.60681641 -0.01836914 1.60681641 -0.01836914 3.24609375 -0.03710938 C4.26832031 -0.03904297 5.29054688 -0.04097656 6.34375 -0.04296875 C7.28412109 -0.04707764 8.22449219 -0.05118652 9.19335938 -0.05541992 C11.5 0.1875 11.5 0.1875 13.5 2.1875 C13.69998324 5.10499135 13.77974887 7.92551929 13.765625 10.84375 C13.76753845 11.70182251 13.7694519 12.55989502 13.77142334 13.44396973 C13.77278544 15.25968722 13.76908728 17.07541445 13.76074219 18.89111328 C13.75004291 21.6763285 13.76063653 24.46089868 13.7734375 27.24609375 C13.77211591 29.00781393 13.76955353 30.76953371 13.765625 32.53125 C13.76967346 33.36773071 13.77372192 34.20421143 13.77789307 35.06604004 C13.72991834 40.95758166 13.72991834 40.95758166 11.5 43.1875 C9.19335938 43.44628906 9.19335938 43.44628906 6.34375 43.453125 C4.81041016 43.45699219 4.81041016 43.45699219 3.24609375 43.4609375 C2.17488281 43.45320312 1.10367188 43.44546875 0 43.4375 C-1.60681641 43.44910156 -1.60681641 43.44910156 -3.24609375 43.4609375 C-4.26832031 43.45835937 -5.29054688 43.45578125 -6.34375 43.453125 C-7.28412109 43.45086914 -8.22449219 43.44861328 -9.19335938 43.44628906 C-11.5 43.1875 -11.5 43.1875 -13.5 41.1875 C-13.67546482 38.17441049 -13.73127445 35.25439546 -13.6953125 32.2421875 C-13.6924826 31.3571756 -13.68965271 30.4721637 -13.68673706 29.56033325 C-13.6755224 26.72758588 -13.6504157 23.89515216 -13.625 21.0625 C-13.61497185 19.14453581 -13.60584572 17.22656667 -13.59765625 15.30859375 C-13.57557889 10.60144124 -13.54104045 5.89452384 -13.5 1.1875 C-9.49700128 -0.81399936 -4.40083269 0.00264791 0 0 Z M-7.5 7.1875 C-7.5 16.7575 -7.5 26.3275 -7.5 36.1875 C-2.55 36.1875 2.4 36.1875 7.5 36.1875 C7.5 26.6175 7.5 17.0475 7.5 7.1875 C2.55 7.1875 -2.4 7.1875 -7.5 7.1875 Z " fill="#5CACBD" transform="translate(652.5,522.8125)"/>
<path d="M0 0 C2.31 0 4.62 0 7 0 C7.50757862 1.41396902 8.00574925 2.83131729 8.5 4.25 C8.7784375 5.03890625 9.056875 5.8278125 9.34375 6.640625 C10 9 10 9 10 13 C10.66 13 11.32 13 12 13 C12.12375 11.96875 12.2475 10.9375 12.375 9.875 C12.93889814 6.37883154 13.78682059 3.31602373 15 0 C17.31 0 19.62 0 22 0 C22 11.22 22 22.44 22 34 C20.02 34 18.04 34 16 34 C15.67 29.05 15.34 24.1 15 19 C14.67 20.32 14.34 21.64 14 23 C12.35 23 10.7 23 9 23 C8.34 21.68 7.68 20.36 7 19 C6.67 23.95 6.34 28.9 6 34 C4.02 34 2.04 34 0 34 C0 22.78 0 11.56 0 0 Z " fill="#5CACBD" transform="translate(325,671)"/>
<path d="M0 0 C16 0 16 0 22 5 C24.22489077 8.90477948 24.29801738 12.49133635 24.3125 16.9375 C24.32925781 18.12214844 24.34601562 19.30679688 24.36328125 20.52734375 C23.95576242 24.42287317 23.1030986 26.70560372 21 30 C16 34 16 34 0 34 C0 22.78 0 11.56 0 0 Z M6 5 C6 12.92 6 20.84 6 29 C12.5948514 29.63731241 12.5948514 29.63731241 15.875 27.125 C18.79613121 22.82921881 19.28846929 19.14436895 19 14 C17.99155074 9.82868714 16.6557695 7.43717967 13 5 C10.69 5 8.38 5 6 5 Z " fill="#5CACBD" transform="translate(528,671)"/>
<path d="M0 0 C0.99 0.33 1.98 0.66 3 1 C3.33 2.32 3.66 3.64 4 5 C1.36 6.65 -1.28 8.3 -4 10 C-2.5975 10.226875 -1.195 10.45375 0.25 10.6875 C3.41072606 11.19879392 4.83223819 11.85521926 7.28125 13.96875 C9.72729303 18.28268044 9.43860624 21.94863519 9.25 26.8125 C9.23195313 27.69615234 9.21390625 28.57980469 9.1953125 29.49023438 C9.14838513 31.66062543 9.07664731 33.83045519 9 36 C6.33333333 36 3.66666667 36 1 36 C0.01 36.495 0.01 36.495 -1 37 C-5.28454373 37.50455052 -8.81954446 37.71978996 -12.5625 35.4375 C-14.58925458 32.00082919 -14.6198676 29.92582814 -14 26 C-11.45862841 22.84045695 -9.85377341 21.28459114 -6 20 C-4.43881572 19.93259135 -2.8749748 19.91485544 -1.3125 19.9375 C-0.10013672 19.95103516 -0.10013672 19.95103516 1.13671875 19.96484375 C1.75160156 19.97644531 2.36648438 19.98804688 3 20 C3 19.01 3 18.02 3 17 C-1.78478822 16.90235126 -6.27685687 17.22887459 -11 18 C-11.66 16.68 -12.32 15.36 -13 14 C-10 12 -10 12 -7 12 C-7.66 10.35 -8.32 8.7 -9 7 C-7.57277341 5.8001722 -6.13284224 4.6154424 -4.6875 3.4375 C-3.88699219 2.77621094 -3.08648437 2.11492188 -2.26171875 1.43359375 C-1.14216797 0.72396484 -1.14216797 0.72396484 0 0 Z M-8 27 C-8 28.32 -8 29.64 -8 31 C-4.44351804 31.90979771 -2.56666256 32.23405628 0.875 30.8125 C1.926875 29.9153125 1.926875 29.9153125 3 29 C3 27.68 3 26.36 3 25 C-2.7974423 24.75571657 -2.7974423 24.75571657 -8 27 Z " fill="#5CACBD" transform="translate(512,669)"/>
<path d="M0 0 C0.99 0.33 1.98 0.66 3 1 C3.33 2.32 3.66 3.64 4 5 C1.36 6.65 -1.28 8.3 -4 10 C-2.5975 10.226875 -1.195 10.45375 0.25 10.6875 C3.41072606 11.19879392 4.83223819 11.85521926 7.28125 13.96875 C9.72729303 18.28268044 9.43860624 21.94863519 9.25 26.8125 C9.23195313 27.69615234 9.21390625 28.57980469 9.1953125 29.49023438 C9.14838513 31.66062543 9.07664731 33.83045519 9 36 C6.33333333 36 3.66666667 36 1 36 C0.01 36.495 0.01 36.495 -1 37 C-5.28454373 37.50455052 -8.81954446 37.71978996 -12.5625 35.4375 C-14.58925458 32.00082919 -14.6198676 29.92582814 -14 26 C-11.45862841 22.84045695 -9.85377341 21.28459114 -6 20 C-4.43881572 19.93259135 -2.8749748 19.91485544 -1.3125 19.9375 C-0.10013672 19.95103516 -0.10013672 19.95103516 1.13671875 19.96484375 C1.75160156 19.97644531 2.36648438 19.98804688 3 20 C3 19.01 3 18.02 3 17 C-1.78478822 16.90235126 -6.27685687 17.22887459 -11 18 C-11.66 16.68 -12.32 15.36 -13 14 C-10 12 -10 12 -7 12 C-7.66 10.35 -8.32 8.7 -9 7 C-7.57277341 5.8001722 -6.13284224 4.6154424 -4.6875 3.4375 C-3.88699219 2.77621094 -3.08648437 2.11492188 -2.26171875 1.43359375 C-1.14216797 0.72396484 -1.14216797 0.72396484 0 0 Z M-8 27 C-8 28.32 -8 29.64 -8 31 C-4.44351804 31.90979771 -2.56666256 32.23405628 0.875 30.8125 C1.926875 29.9153125 1.926875 29.9153125 3 29 C3 27.68 3 26.36 3 25 C-2.7974423 24.75571657 -2.7974423 24.75571657 -8 27 Z " fill="#5CACBD" transform="translate(367,669)"/>
<path d="M0 0 C1.134375 0.020625 2.26875 0.04125 3.4375 0.0625 C4.86341306 4.743363 6.28753119 9.42476676 7.70996094 14.10668945 C8.19448879 15.70059098 8.67951386 17.29434145 9.16503906 18.88793945 C9.86132322 21.17359878 10.55583936 23.45978875 11.25 25.74609375 C11.57810669 26.8211039 11.57810669 26.8211039 11.9128418 27.91783142 C13.4375 32.94862829 13.4375 32.94862829 13.4375 34.0625 C11.4575 34.0625 9.4775 34.0625 7.4375 34.0625 C5.67287317 30.97440305 5.4375 29.82937864 5.4375 26.0625 C1.8075 26.3925 -1.8225 26.7225 -5.5625 27.0625 C-6.5525 29.3725 -7.5425 31.6825 -8.5625 34.0625 C-10.5425 34.0625 -12.5225 34.0625 -14.5625 34.0625 C-13.16071016 29.37987701 -11.75478963 24.69852246 -10.3449707 20.01831055 C-9.86563258 18.42490545 -9.38743915 16.83115555 -8.91040039 15.23706055 C-8.22580485 12.95009913 -7.53714589 10.66439619 -6.84765625 8.37890625 C-6.63407974 7.66223282 -6.42050323 6.94555939 -6.20045471 6.20716858 C-4.34307227 0.07619425 -4.34307227 0.07619425 0 0 Z M-0.5625 9.0625 C-1.04448463 10.31141614 -1.52295677 11.56168808 -2 12.8125 C-2.26683594 13.50859375 -2.53367187 14.2046875 -2.80859375 14.921875 C-3.52396693 16.95309003 -4.07615652 18.9660291 -4.5625 21.0625 C-1.9225 21.0625 0.7175 21.0625 3.4375 21.0625 C2.4475 17.1025 1.4575 13.1425 0.4375 9.0625 C0.1075 9.0625 -0.2225 9.0625 -0.5625 9.0625 Z " fill="#5CACBD" transform="translate(423.5625,670.9375)"/>
<path d="M0 0 C3.16749936 1.68085061 5.2985848 4.01164222 7.375 6.9375 C8 9 8 9 8 15 C-1.405 15.495 -1.405 15.495 -11 16 C-7.69688498 20.14566617 -7.69688498 20.14566617 -4.96484375 20.20703125 C-3.96130859 20.01173828 -3.96130859 20.01173828 -2.9375 19.8125 C-2.26589844 19.69519531 -1.59429688 19.57789063 -0.90234375 19.45703125 C1.20311879 18.97999748 1.20311879 18.97999748 4 18 C4.66 18.66 5.32 19.32 6 20 C5.875 22 5.875 22 5 24 C0.59017119 26.77582974 -3.95652436 26.63740608 -9 26 C-12.76266417 24.22128603 -14.51796464 22.66862969 -16.9375 19.3125 C-18.34591214 14.92156804 -18.21096443 11.4347481 -17 7 C-12.92307437 0.39256881 -7.46695113 -1.28115799 0 0 Z M-11 8 C-11 8.66 -11 9.32 -11 10 C-6.71 10 -2.42 10 2 10 C1.32664981 6.94622345 1.32664981 6.94622345 -0.8125 5.8125 C-5.22490138 4.17360806 -7.70007246 4.93578157 -11 8 Z " fill="#5CACBD" transform="translate(573,680)"/>
<path d="M0 0 C17 0 17 0 22 4 C23.75686944 7.51373887 23.65958838 11.17438737 23 15 C20.1383552 18.78974582 20.1383552 18.78974582 17 20 C13.22573516 20.39347617 9.81466124 20.2326013 6 20 C6 24.62 6 29.24 6 34 C4.02 34 2.04 34 0 34 C0 22.78 0 11.56 0 0 Z M6 5 C6 8.3 6 11.6 6 15 C7.8871875 15.061875 7.8871875 15.061875 9.8125 15.125 C10.52019531 15.14820313 11.22789062 15.17140625 11.95703125 15.1953125 C14.31359719 15.13254462 14.31359719 15.13254462 17 13 C17.5 10 17.5 10 17 7 C13.91111478 4.94074319 13.29064073 4.7609626 9.8125 4.875 C8.554375 4.91625 7.29625 4.9575 6 5 Z " fill="#5CACBD" transform="translate(644,671)"/>
<path d="M0 0 C2.93423195 1.79646854 4.47205355 2.9441071 6 6 C6.08342159 7.44848582 6.10732861 8.90070869 6.09765625 10.3515625 C6.09443359 11.20234375 6.09121094 12.053125 6.08789062 12.9296875 C6.07951172 13.81914063 6.07113281 14.70859375 6.0625 15.625 C6.05798828 16.5221875 6.05347656 17.419375 6.04882812 18.34375 C6.03702591 20.56256648 6.02056155 22.78125018 6 25 C3.33333333 25 0.66666667 25 -2 25 C-2.66 25.33 -3.32 25.66 -4 26 C-8.28454373 26.50455052 -11.81954446 26.71978996 -15.5625 24.4375 C-17.58925458 21.00082919 -17.6198676 18.92582814 -17 15 C-14.45862841 11.84045695 -12.85377341 10.28459114 -9 9 C-7.43881572 8.93259135 -5.8749748 8.91485544 -4.3125 8.9375 C-3.10013672 8.95103516 -3.10013672 8.95103516 -1.86328125 8.96484375 C-0.94095703 8.98224609 -0.94095703 8.98224609 0 9 C0 8.01 0 7.02 0 6 C-4.78478822 5.90235126 -9.27685687 6.22887459 -14 7 C-14.66 5.68 -15.32 4.36 -16 3 C-10.78970599 -0.29071201 -6.01045562 -0.93162062 0 0 Z M-11 16 C-11 17.32 -11 18.64 -11 20 C-7.44351804 20.90979771 -5.56666256 21.23405628 -2.125 19.8125 C-1.073125 18.9153125 -1.073125 18.9153125 0 18 C0 16.68 0 15.36 0 14 C-5.7974423 13.75571657 -5.7974423 13.75571657 -11 16 Z " fill="#5CACBD" transform="translate(863,680)"/>
<path d="M0 0 C2.93423195 1.79646854 4.47205355 2.9441071 6 6 C6.08342159 7.44848582 6.10732861 8.90070869 6.09765625 10.3515625 C6.09443359 11.20234375 6.09121094 12.053125 6.08789062 12.9296875 C6.07951172 13.81914063 6.07113281 14.70859375 6.0625 15.625 C6.05798828 16.5221875 6.05347656 17.419375 6.04882812 18.34375 C6.03702591 20.56256648 6.02056155 22.78125018 6 25 C3.33333333 25 0.66666667 25 -2 25 C-2.66 25.33 -3.32 25.66 -4 26 C-8.28454373 26.50455052 -11.81954446 26.71978996 -15.5625 24.4375 C-17.58925458 21.00082919 -17.6198676 18.92582814 -17 15 C-14.45862841 11.84045695 -12.85377341 10.28459114 -9 9 C-7.43881572 8.93259135 -5.8749748 8.91485544 -4.3125 8.9375 C-3.10013672 8.95103516 -3.10013672 8.95103516 -1.86328125 8.96484375 C-0.94095703 8.98224609 -0.94095703 8.98224609 0 9 C0 8.01 0 7.02 0 6 C-4.78478822 5.90235126 -9.27685687 6.22887459 -14 7 C-14.66 5.68 -15.32 4.36 -16 3 C-10.78970599 -0.29071201 -6.01045562 -0.93162062 0 0 Z M-11 16 C-11 17.32 -11 18.64 -11 20 C-7.44351804 20.90979771 -5.56666256 21.23405628 -2.125 19.8125 C-1.073125 18.9153125 -1.073125 18.9153125 0 18 C0 16.68 0 15.36 0 14 C-5.7974423 13.75571657 -5.7974423 13.75571657 -11 16 Z " fill="#5CACBD" transform="translate(776,680)"/>
<path d="M0 0 C2.93423195 1.79646854 4.47205355 2.9441071 6 6 C6.08342159 7.44848582 6.10732861 8.90070869 6.09765625 10.3515625 C6.09443359 11.20234375 6.09121094 12.053125 6.08789062 12.9296875 C6.07951172 13.81914063 6.07113281 14.70859375 6.0625 15.625 C6.05798828 16.5221875 6.05347656 17.419375 6.04882812 18.34375 C6.03702591 20.56256648 6.02056155 22.78125018 6 25 C3.33333333 25 0.66666667 25 -2 25 C-2.66 25.33 -3.32 25.66 -4 26 C-8.28454373 26.50455052 -11.81954446 26.71978996 -15.5625 24.4375 C-17.58925458 21.00082919 -17.6198676 18.92582814 -17 15 C-14.45862841 11.84045695 -12.85377341 10.28459114 -9 9 C-7.43881572 8.93259135 -5.8749748 8.91485544 -4.3125 8.9375 C-3.10013672 8.95103516 -3.10013672 8.95103516 -1.86328125 8.96484375 C-0.94095703 8.98224609 -0.94095703 8.98224609 0 9 C0 8.01 0 7.02 0 6 C-4.78478822 5.90235126 -9.27685687 6.22887459 -14 7 C-14.66 5.68 -15.32 4.36 -16 3 C-10.78970599 -0.29071201 -6.01045562 -0.93162062 0 0 Z M-11 16 C-11 17.32 -11 18.64 -11 20 C-7.44351804 20.90979771 -5.56666256 21.23405628 -2.125 19.8125 C-1.073125 18.9153125 -1.073125 18.9153125 0 18 C0 16.68 0 15.36 0 14 C-5.7974423 13.75571657 -5.7974423 13.75571657 -11 16 Z " fill="#5CACBD" transform="translate(689,680)"/>
<path d="M0 0 C2.93423195 1.79646854 4.47205355 2.9441071 6 6 C6.08342159 7.44848582 6.10732861 8.90070869 6.09765625 10.3515625 C6.09443359 11.20234375 6.09121094 12.053125 6.08789062 12.9296875 C6.07951172 13.81914063 6.07113281 14.70859375 6.0625 15.625 C6.05798828 16.5221875 6.05347656 17.419375 6.04882812 18.34375 C6.03702591 20.56256648 6.02056155 22.78125018 6 25 C3.33333333 25 0.66666667 25 -2 25 C-2.66 25.33 -3.32 25.66 -4 26 C-8.28454373 26.50455052 -11.81954446 26.71978996 -15.5625 24.4375 C-17.58925458 21.00082919 -17.6198676 18.92582814 -17 15 C-14.45862841 11.84045695 -12.85377341 10.28459114 -9 9 C-7.43881572 8.93259135 -5.8749748 8.91485544 -4.3125 8.9375 C-3.10013672 8.95103516 -3.10013672 8.95103516 -1.86328125 8.96484375 C-0.94095703 8.98224609 -0.94095703 8.98224609 0 9 C0 8.01 0 7.02 0 6 C-4.78478822 5.90235126 -9.27685687 6.22887459 -14 7 C-14.66 5.68 -15.32 4.36 -16 3 C-10.78970599 -0.29071201 -6.01045562 -0.93162062 0 0 Z M-11 16 C-11 17.32 -11 18.64 -11 20 C-7.44351804 20.90979771 -5.56666256 21.23405628 -2.125 19.8125 C-1.073125 18.9153125 -1.073125 18.9153125 0 18 C0 16.68 0 15.36 0 14 C-5.7974423 13.75571657 -5.7974423 13.75571657 -11 16 Z " fill="#5CACBD" transform="translate(631,680)"/>
<path d="M0 0 C0.61875 0.33 1.2375 0.66 1.875 1 C1.545 2.65 1.215 4.3 0.875 6 C-0.38957031 5.85691406 -0.38957031 5.85691406 -1.6796875 5.7109375 C-2.77539062 5.60007812 -3.87109375 5.48921875 -5 5.375 C-6.09054687 5.25898437 -7.18109375 5.14296875 -8.3046875 5.0234375 C-9.23539062 5.01570312 -10.16609375 5.00796875 -11.125 5 C-11.785 5.66 -12.445 6.32 -13.125 7 C-11.66126953 7.36351562 -11.66126953 7.36351562 -10.16796875 7.734375 C-8.89566406 8.06953125 -7.62335938 8.4046875 -6.3125 8.75 C-5.04792969 9.07484375 -3.78335937 9.3996875 -2.48046875 9.734375 C0.98863044 11.04285944 2.21608265 11.73808386 3.875 15 C3.74350006 18.22174857 3.46342409 20.22435006 1.5 22.8125 C-2.9643169 26.07488543 -8.86772631 25.44933963 -14.125 25 C-17.8125 23.5 -17.8125 23.5 -20.125 22 C-19.795 20.35 -19.465 18.7 -19.125 17 C-17.92875 17.33 -16.7325 17.66 -15.5 18 C-11.95897302 18.87897833 -8.79169474 19.34920902 -5.125 19 C-4.465 18.34 -3.805 17.68 -3.125 17 C-4.48044922 16.61908203 -4.48044922 16.61908203 -5.86328125 16.23046875 C-7.04277344 15.88628906 -8.22226562 15.54210937 -9.4375 15.1875 C-10.60925781 14.85105469 -11.78101563 14.51460937 -12.98828125 14.16796875 C-16.6407173 12.80797077 -18.36382053 11.63109887 -20 8.125 C-20.18560351 4.96974036 -19.01110975 3.47145416 -17.125 1 C-11.98448909 -2.22672763 -5.61652783 -1.79728891 0 0 Z " fill="#5CACBD" transform="translate(402.125,681)"/>
<path d="M0 0 C1.98 0 3.96 0 6 0 C6 3.3 6 6.6 6 10 C9.3 10 12.6 10 16 10 C16 11.65 16 13.3 16 15 C12.7 15 9.4 15 6 15 C6.33 19.29 6.66 23.58 7 28 C8.65 28.33 10.3 28.66 12 29 C14.33454661 27.16641665 14.33454661 27.16641665 16 25 C16.99 25.33 17.98 25.66 19 26 C18.52238806 31.37313433 18.52238806 31.37313433 16.4375 33.875 C12.95545832 35.48209616 9.72315887 35.67962424 6 35 C2.55687286 32.8755173 1.28382453 31.85147359 0 28 C-0.06937062 25.77181559 -0.08457084 23.54165476 -0.0625 21.3125 C-0.05347656 20.13300781 -0.04445313 18.95351563 -0.03515625 17.73828125 C-0.02355469 16.83464844 -0.01195312 15.93101562 0 15 C-1.65 15 -3.3 15 -5 15 C-5 13.35 -5 11.7 -5 10 C-3.35 10 -1.7 10 0 10 C0 6.7 0 3.4 0 0 Z " fill="#5CACBD" transform="translate(735,671)"/>
<path d="M0 0 C3.625 0.5 3.625 0.5 6.33203125 2.38671875 C9.60884172 6.83581235 9.18413937 10.44335069 8.9375 15.8125 C8.91494141 16.74384766 8.89238281 17.67519531 8.86914062 18.63476562 C8.81042078 20.9248396 8.72836858 23.21157875 8.625 25.5 C6.645 25.5 4.665 25.5 2.625 25.5 C2.295 19.56 1.965 13.62 1.625 7.5 C0.305 7.17 -1.015 6.84 -2.375 6.5 C-4.75820511 7.87973684 -4.75820511 7.87973684 -6.375 10.5 C-6.8240016 13.20552245 -7.06869634 15.54230591 -7.125 18.25 C-7.15464844 18.94738281 -7.18429687 19.64476562 -7.21484375 20.36328125 C-7.28518458 22.07490813 -7.33239946 23.78745815 -7.375 25.5 C-9.355 25.5 -11.335 25.5 -13.375 25.5 C-13.375 17.58 -13.375 9.66 -13.375 1.5 C-11.395 1.5 -9.415 1.5 -7.375 1.5 C-7.045 2.16 -6.715 2.82 -6.375 3.5 C-6.024375 3.005 -5.67375 2.51 -5.3125 2 C-3.375 0.5 -3.375 0.5 0 0 Z " fill="#5CACBD" transform="translate(715.375,679.5)"/>
<path d="M0 0 C3.63 0 7.26 0 11 0 C11 9.57 11 19.14 11 29 C12.98 29 14.96 29 17 29 C17 30.65 17 32.3 17 34 C11.39 34 5.78 34 0 34 C0 32.35 0 30.7 0 29 C1.65 29 3.3 29 5 29 C5 21.08 5 13.16 5 5 C3.35 5 1.7 5 0 5 C0 3.35 0 1.7 0 0 Z " fill="#5CACBD" transform="translate(821,671)"/>
<path d="M0 0 C3.63 0 7.26 0 11 0 C11 9.57 11 19.14 11 29 C12.98 29 14.96 29 17 29 C17 30.65 17 32.3 17 34 C11.39 34 5.78 34 0 34 C0 32.35 0 30.7 0 29 C1.65 29 3.3 29 5 29 C5 21.08 5 13.16 5 5 C3.35 5 1.7 5 0 5 C0 3.35 0 1.7 0 0 Z " fill="#5CACBD" transform="translate(792,671)"/>
<path d="M0 0 C1.98 0 3.96 0 6 0 C6 9.57 6 19.14 6 29 C11.28 29 16.56 29 22 29 C22 30.65 22 32.3 22 34 C14.74 34 7.48 34 0 34 C0 22.78 0 11.56 0 0 Z " fill="#5CACBD" transform="translate(586,671)"/>
<path d="M0 0 C3.63 0 7.26 0 11 0 C11 9.57 11 19.14 11 29 C12.98 29 14.96 29 17 29 C17 30.65 17 32.3 17 34 C11.39 34 5.78 34 0 34 C0 32.35 0 30.7 0 29 C1.65 29 3.3 29 5 29 C5 21.08 5 13.16 5 5 C3.35 5 1.7 5 0 5 C0 3.35 0 1.7 0 0 Z " fill="#5CACBD" transform="translate(473,671)"/>
<path d="M0 0 C3.63 0 7.26 0 11 0 C11 9.57 11 19.14 11 29 C12.98 29 14.96 29 17 29 C17 30.65 17 32.3 17 34 C11.39 34 5.78 34 0 34 C0 32.35 0 30.7 0 29 C1.65 29 3.3 29 5 29 C5 21.08 5 13.16 5 5 C3.35 5 1.7 5 0 5 C0 3.35 0 1.7 0 0 Z " fill="#5CACBD" transform="translate(444,671)"/>
<path d="M0 0 C4.95 0 9.9 0 15 0 C15 2.31 15 4.62 15 7 C12.03 7 9.06 7 6 7 C6 7.66 6 8.32 6 9 C8.97 9 11.94 9 15 9 C15 11.31 15 13.62 15 16 C10.05 16 5.1 16 0 16 C0 10.72 0 5.44 0 0 Z " fill="#5CACBD" transform="translate(612,547)"/>
<path d="M0 0 C9.9 0 19.8 0 30 0 C30 2.31 30 4.62 30 7 C20.1 7 10.2 7 0 7 C0 4.69 0 2.38 0 0 Z " fill="#5CACBD" transform="translate(597,565)"/>
<path d="M0 0 C9.9 0 19.8 0 30 0 C30 2.31 30 4.62 30 7 C20.1 7 10.2 7 0 7 C0 4.69 0 2.38 0 0 Z " fill="#5CACBD" transform="translate(597,538)"/>
<path d="M0 0 C2.125 0.375 2.125 0.375 4 1 C4 2.32 4 3.64 4 5 C2.68 5.33 1.36 5.66 0 6 C-0.66 4.68 -1.32 3.36 -2 2 C-1.34 1.34 -0.68 0.68 0 0 Z " fill="#5CACBD" transform="translate(651,567)"/>
<path d="M0 0 C2.125 0.375 2.125 0.375 4 1 C4 2.32 4 3.64 4 5 C2.68 5.33 1.36 5.66 0 6 C-0.66 4.68 -1.32 3.36 -2 2 C-1.34 1.34 -0.68 0.68 0 0 Z " fill="#5CACBD" transform="translate(558,567)"/>
</svg>
